<svg xmlns="http://www.w3.org/2000/svg" viewBox="0 0 1371 769"><defs><style>.cls-1{fill:#f9bb19;}.cls-2{opacity:0.05;}.cls-3{opacity:0.04;}.cls-4{opacity:0.02;}</style></defs><title>Asset 12</title><g id="Layer_2" data-name="Layer 2"><g id="Layer_2-2" data-name="Layer 2"><rect class="cls-1" width="1371" height="769"/><rect class="cls-2" y="689" width="1363" height="80"/><polygon class="cls-3" points="1050 513 798 689 798 689 1084 689 1050 513"/><polygon class="cls-4" points="1148 513 1053 514 1020 687 1132 689 1148 513"/><polygon class="cls-4" points="1257 651 1150 516 1134 688 1246 690 1257 651"/><polygon class="cls-4" points="1353 647 1267 515 1251 687 1350 687 1353 647"/><polygon class="cls-4" points="1364.34 443 1271 512 1366 542.87 1364.7 443.88 1364.34 443"/><polygon class="cls-3" points="180 687 2.03 404.98 2.03 404.98 1.97 690.98 180 687"/><polygon class="cls-3" points="4 281 132 419 136 418 1 139 4 281"/><polygon class="cls-4" points="964 431 845.54 279.5 920 379 825.62 65 949.46 53.5 1137 199 964 431"/><polygon class="cls-4" points="1230 198 1135 199 1102 372 1214 374 1230 198"/><path class="cls-4" d="M153,479,2,405.1,186,693,299,427a167,167,0,0,0-30.17-3Z"/><polygon class="cls-3" points="441 6 300.05 142 367 153 398 273 414.95 341 547 174 441 6"/><path class="cls-4" d="M558.71,405.5l78.54-102.31L753.67,465.54a991.4,991.4,0,0,1-119,36.57c-5.43,1.3-12.2,4.25-11.76,9.82.19,2.44,1.85,4.5,3.55,6.26,9.75,10.13,22.77,16.37,35.68,21.93a597.43,597.43,0,0,0,249.65,48.34q-1.82-44.46-.56-89c.5-17.68,1.31-35.78-4.16-52.6-4.44-13.67-12.79-25.68-21-37.47-1.45-2.08-3-4.25-5.36-5.24-3.84-1.61-8.13.54-11.73,2.64L817.07,437c-2.87,1.67-6,3.4-9.28,3.28-6-.21-10-6-13-11.22A1075.7,1075.7,0,0,0,674.38,262.48l3.78,118"/></g></g></svg>